<?xml version="1.0" standalone="no"?>
<!DOCTYPE svg PUBLIC "-//W3C//DTD SVG 20010904//EN"
 "http://www.w3.org/TR/2001/REC-SVG-20010904/DTD/svg10.dtd">
<svg version="1.0" xmlns="http://www.w3.org/2000/svg"
 width="256.000000pt" height="256.000000pt" viewBox="0 0 256.000000 256.000000"
 preserveAspectRatio="xMidYMid meet">
<metadata>
Created by potrace 1.11, written by Peter Selinger 2001-2013
</metadata>
<g transform="translate(0.000000,256.000000) scale(0.100000,-0.100000)"
fill="#000000" stroke="none">
<path d="M990 2354 c-41 -7 -85 -15 -97 -18 -13 -4 -32 -8 -43 -11 -47 -10
-150 -50 -224 -87 -289 -143 -506 -398 -586 -691 -32 -116 -32 -114 -35 -244
-7 -333 121 -609 391 -844 125 -108 343 -213 514 -248 30 -6 66 -14 80 -17 14
-3 88 -7 165 -9 146 -3 239 8 375 44 314 84 584 302 730 590 26 51 93 229 89
239 0 2 26 28 58 57 105 95 154 208 149 340 -2 62 -9 87 -39 147 -59 120 -197
247 -319 294 -28 11 -70 45 -123 99 -44 44 -98 94 -120 110 -22 17 -42 32 -45
35 -28 28 -222 131 -293 154 -209 70 -439 92 -627 60z m431 -68 c225 -48 414
-144 562 -286 58 -55 60 -59 32 -53 -32 6 -690 11 -715 5 -15 -3 -106 -200
-116 -251 -1 -8 -6 -17 -11 -20 -4 -3 -9 -14 -11 -24 -2 -9 -16 -47 -32 -83
-17 -36 -30 -72 -30 -80 0 -8 -4 -14 -8 -14 -5 0 -9 -6 -9 -12 0 -7 -11 -35
-23 -63 -13 -27 -22 -54 -21 -59 1 -5 -2 -12 -6 -15 -5 -3 -38 -79 -73 -168
-36 -89 -68 -156 -72 -150 -3 7 -9 30 -12 52 -8 56 -36 255 -41 285 -2 14 -6
48 -10 75 -3 28 -8 57 -10 65 -2 8 -6 38 -10 65 -3 28 -8 61 -10 75 -7 45 -26
179 -30 207 -2 16 -4 38 -4 51 -1 15 -7 22 -21 22 -12 0 -22 9 -25 23 -6 22
-7 22 -185 21 -99 -1 -180 2 -180 7 0 11 65 70 131 120 141 106 361 195 530
215 30 3 56 8 58 10 11 10 285 -5 352 -20z m-1105 -407 c7 -51 13 -90 18 -134
3 -22 7 -51 10 -65 3 -14 8 -45 10 -70 3 -25 7 -56 10 -70 2 -14 7 -43 10 -65
3 -22 7 -56 10 -75 3 -19 8 -52 11 -72 3 -21 7 -53 10 -70 2 -18 7 -51 9 -73
3 -22 7 -51 10 -65 2 -14 7 -45 11 -70 4 -25 8 -56 10 -70 6 -37 13 -89 20
-145 3 -27 8 -61 11 -75 8 -44 14 -84 19 -130 3 -25 7 -56 9 -70 2 -14 7 -44
11 -68 l6 -43 -29 15 c-72 37 -238 216 -295 319 -39 69 -51 92 -54 102 -1 6
-16 49 -32 97 -38 110 -50 197 -46 323 6 171 35 281 111 425 35 66 124 193
131 186 2 -2 6 -19 9 -37z m1717 -309 c80 -38 95 -118 33 -184 -59 -64 -105
-78 -270 -82 -71 -1 -132 -7 -136 -11 -9 -9 -116 -260 -122 -282 -2 -10 6 -15
22 -15 19 -1 24 -6 22 -22 -3 -21 -1 -21 245 -19 138 2 262 7 281 13 18 6 33
10 35 10 8 -2 94 27 105 35 37 29 21 -34 -44 -168 -148 -306 -454 -523 -829
-589 -104 -18 -323 -14 -430 8 -71 15 -131 33 -210 65 l-90 36 225 3 225 2 14
33 c21 51 42 99 62 142 10 22 64 146 119 275 56 129 108 249 115 265 8 17 53
120 101 230 47 110 95 219 105 243 l19 43 177 -4 c161 -3 183 -6 226 -27z"/>
</g>
</svg>
